<svg xmlns="http://www.w3.org/2000/svg" viewBox="0 0 200.78 48"><defs><style>.cls-1{fill:#0d2978;}.cls-2{fill:#0655ef;}.cls-3{fill:none;}</style></defs><g id="Warstwa_1" data-name="Warstwa 1"><path class="cls-1" d="M57.05,21.88a4.94,4.94,0,0,0-1.31-.95,2.92,2.92,0,0,0-1.34-.37,4,4,0,0,0-.85.1,1.52,1.52,0,0,0-.71.38,1.07,1.07,0,0,0-.29.82,1.08,1.08,0,0,0,.67,1,9,9,0,0,0,1.61.56,13.2,13.2,0,0,1,1.64.56,3.4,3.4,0,0,1,1.33,1,2.82,2.82,0,0,1,.52,1.82,2.7,2.7,0,0,1-.56,1.73,3.67,3.67,0,0,1-1.46,1.1,4.82,4.82,0,0,1-1.88.38,6.64,6.64,0,0,1-2.31-.42,4.44,4.44,0,0,1-2-1.45l1.44-1.24a4,4,0,0,0,1.27,1,3.78,3.78,0,0,0,1.73.36,2.36,2.36,0,0,0,.78-.13,1.54,1.54,0,0,0,.67-.44,1.09,1.09,0,0,0,.28-.81,1,1,0,0,0-.3-.77,2.38,2.38,0,0,0-.79-.45,11,11,0,0,0-1.09-.32,13.82,13.82,0,0,1-1.74-.61,3.64,3.64,0,0,1-1.41-1,2.72,2.72,0,0,1-.57-1.82A2.56,2.56,0,0,1,51,20.26a3.66,3.66,0,0,1,1.42-1.07,4.81,4.81,0,0,1,1.9-.38,6.23,6.23,0,0,1,2.09.41,4.26,4.26,0,0,1,1.87,1.32Z"/><path class="cls-1" d="M66.3,18.85a4.81,4.81,0,0,1,2.58.71,5,5,0,0,1,1.8,2,6.11,6.11,0,0,1,.66,2.9,6.11,6.11,0,0,1-.66,2.88,5.08,5.08,0,0,1-1.79,2,4.61,4.61,0,0,1-2.53.72,4.35,4.35,0,0,1-2.08-.5,4.61,4.61,0,0,1-1.47-1.13v6H60.67V19h2.14V20.6a4.19,4.19,0,0,1,1.41-1.21A4.14,4.14,0,0,1,66.3,18.85Zm-.29,2a3.18,3.18,0,0,0-1.71.47,3.27,3.27,0,0,0-1.18,1.29,4,4,0,0,0-.42,1.86,4,4,0,0,0,.42,1.85,3.36,3.36,0,0,0,1.18,1.3,3.1,3.1,0,0,0,1.71.48,3.06,3.06,0,0,0,1.71-.48,3.39,3.39,0,0,0,1.16-1.3,4,4,0,0,0,.42-1.85,4,4,0,0,0-.42-1.86,3.29,3.29,0,0,0-1.16-1.29A3.13,3.13,0,0,0,66,20.81Z"/><path class="cls-1" d="M79.29,18.81a3.71,3.71,0,0,1,2.26.6A3.07,3.07,0,0,1,82.67,21,7.17,7.17,0,0,1,83,23.25v6.58H80.87V23.4a4.34,4.34,0,0,0-.2-1.4,1.93,1.93,0,0,0-.7-1,2.07,2.07,0,0,0-1.38-.28,2.92,2.92,0,0,0-1.46.35,2.69,2.69,0,0,0-1,.92,2.27,2.27,0,0,0-.37,1.27v6.54H73.64V14.62h2.12v6.13a4.44,4.44,0,0,1,1.43-1.35A3.94,3.94,0,0,1,79.29,18.81Z"/><path class="cls-1" d="M95.14,28.41h0a5.68,5.68,0,0,1-1.81,1.13,6.31,6.31,0,0,1-5.37-.21,5.16,5.16,0,0,1-2-1.95,5.57,5.57,0,0,1-.72-2.83,6.06,6.06,0,0,1,.76-3.1,5.3,5.3,0,0,1,2-2,5.54,5.54,0,0,1,2.73-.69,4.74,4.74,0,0,1,2.47.67A5,5,0,0,1,95,21.3,5.58,5.58,0,0,1,95.61,24l0,.9H87.33a3.44,3.44,0,0,0,1.2,2.31,3.88,3.88,0,0,0,2.58.86,3.49,3.49,0,0,0,1.83-.43,8.05,8.05,0,0,0,1.15-.81Zm-4.42-7.66a3.9,3.9,0,0,0-2.12.56,2.86,2.86,0,0,0-1.19,1.94h6v-.14A2.37,2.37,0,0,0,93,21.88,2.76,2.76,0,0,0,92,21,3,3,0,0,0,90.72,20.75Z"/><path class="cls-1" d="M104,21.32a2.65,2.65,0,0,0-.5-.17,2.59,2.59,0,0,0-.63-.07,2.82,2.82,0,0,0-1.3.33,3,3,0,0,0-1,1,2.54,2.54,0,0,0-.43,1.49v6H97.92V19h2.13v2a4.07,4.07,0,0,1,1.37-1.63,3.35,3.35,0,0,1,1.92-.64,2.6,2.6,0,0,1,1.17.21Z"/><path class="cls-1" d="M115,28.41h0a5.68,5.68,0,0,1-1.81,1.13,6.33,6.33,0,0,1-5.38-.21,5.21,5.21,0,0,1-2-1.95,5.57,5.57,0,0,1-.72-2.83,6,6,0,0,1,.76-3.1,5.3,5.3,0,0,1,2-2,5.54,5.54,0,0,1,2.73-.69,4.77,4.77,0,0,1,2.47.67,4.86,4.86,0,0,1,1.76,1.84,5.48,5.48,0,0,1,.66,2.74l0,.9h-8.26a3.44,3.44,0,0,0,1.2,2.31,3.88,3.88,0,0,0,2.58.86,3.54,3.54,0,0,0,1.83-.43,8.05,8.05,0,0,0,1.15-.81Zm-4.42-7.66a3.9,3.9,0,0,0-2.12.56,2.86,2.86,0,0,0-1.19,1.94h6v-.14a2.28,2.28,0,0,0-.46-1.23,2.8,2.8,0,0,0-1-.84A2.89,2.89,0,0,0,110.6,20.75Z"/><path class="cls-1" d="M132.82,28.41h0A5.68,5.68,0,0,1,131,29.54a6.31,6.31,0,0,1-5.37-.21,5.16,5.16,0,0,1-2-1.95,5.57,5.57,0,0,1-.72-2.83,6.06,6.06,0,0,1,.76-3.1,5.3,5.3,0,0,1,2-2,5.54,5.54,0,0,1,2.73-.69,4.74,4.74,0,0,1,2.47.67,5,5,0,0,1,1.77,1.84,5.58,5.58,0,0,1,.65,2.74l0,.9H125a3.44,3.44,0,0,0,1.2,2.31,3.88,3.88,0,0,0,2.58.86,3.49,3.49,0,0,0,1.83-.43,8.05,8.05,0,0,0,1.15-.81Zm-4.42-7.66a3.9,3.9,0,0,0-2.12.56,2.86,2.86,0,0,0-1.19,1.94h6v-.14a2.37,2.37,0,0,0-.47-1.23,2.76,2.76,0,0,0-1-.84A3,3,0,0,0,128.4,20.75Z"/><path class="cls-1" d="M141.25,18.81a3.71,3.71,0,0,1,2.26.6,3.13,3.13,0,0,1,1.12,1.6,7.48,7.48,0,0,1,.32,2.24v6.58h-2.12V23.4a4.64,4.64,0,0,0-.2-1.4,1.93,1.93,0,0,0-.7-1,2.07,2.07,0,0,0-1.38-.28,2.92,2.92,0,0,0-1.46.35,2.8,2.8,0,0,0-1,.92,2.35,2.35,0,0,0-.37,1.27v6.54H135.6V19h2.11v1.71a4.48,4.48,0,0,1,1.44-1.35A3.91,3.91,0,0,1,141.25,18.81Z"/><path class="cls-1" d="M149.31,31.62a4.72,4.72,0,0,0,1.54.76,6.16,6.16,0,0,0,1.81.29,3.65,3.65,0,0,0,2.55-.81,3.15,3.15,0,0,0,.88-2.44V28.11a3.68,3.68,0,0,1-.82.93,4.32,4.32,0,0,1-1.26.72,4,4,0,0,1-1.5.28,5.17,5.17,0,0,1-4.63-2.72,6.32,6.32,0,0,1,0-5.8,5.12,5.12,0,0,1,4.58-2.71,4.39,4.39,0,0,1,2.19.55,4.82,4.82,0,0,1,1.45,1.18V19h2.12V29.17a5.67,5.67,0,0,1-.77,3.12,4.62,4.62,0,0,1-2,1.73,6.91,6.91,0,0,1-2.74.54,7.55,7.55,0,0,1-2.29-.36,5.29,5.29,0,0,1-1.84-.94Zm3.43-10.87a3.27,3.27,0,0,0-1.76.48,3.4,3.4,0,0,0-1.21,1.31,3.93,3.93,0,0,0-.44,1.89,3.85,3.85,0,0,0,.44,1.87A3.44,3.44,0,0,0,151,27.6a3.27,3.27,0,0,0,1.76.48,3.36,3.36,0,0,0,1.8-.47,3.28,3.28,0,0,0,1.2-1.3,4.37,4.37,0,0,0,0-3.78,3.41,3.41,0,0,0-1.2-1.3A3.36,3.36,0,0,0,152.74,20.75Z"/><path class="cls-1" d="M162.59,16.7a1.43,1.43,0,0,1-1.07-.37,1.45,1.45,0,0,1,0-1.89,1.31,1.31,0,0,1,1.07-.42,1.4,1.4,0,0,1,1.06.37,1.33,1.33,0,0,1,.35,1,1.38,1.38,0,0,1-.35.93A1.31,1.31,0,0,1,162.59,16.7Zm1.09,13.13h-2.12V19h2.12Z"/><path class="cls-1" d="M172.54,18.81a3.73,3.73,0,0,1,2.26.6,3.19,3.19,0,0,1,1.12,1.6,7.48,7.48,0,0,1,.32,2.24v6.58h-2.12V23.4a4.34,4.34,0,0,0-.21-1.4,1.87,1.87,0,0,0-.7-1,2,2,0,0,0-1.37-.28,2.9,2.9,0,0,0-1.46.35,2.72,2.72,0,0,0-1,.92,2.27,2.27,0,0,0-.37,1.27v6.54h-2.12V19H169v1.71a4.48,4.48,0,0,1,1.44-1.35A3.91,3.91,0,0,1,172.54,18.81Z"/><path class="cls-1" d="M188.38,28.41h0a5.68,5.68,0,0,1-1.81,1.13,6,6,0,0,1-2.4.5,6.1,6.1,0,0,1-3-.71,5.16,5.16,0,0,1-2-1.95,5.56,5.56,0,0,1-.71-2.83,6,6,0,0,1,.76-3.1,5.21,5.21,0,0,1,2-2,5.59,5.59,0,0,1,2.73-.69,4.74,4.74,0,0,1,2.47.67,5,5,0,0,1,1.77,1.84,5.48,5.48,0,0,1,.66,2.74l0,.9h-8.27a3.49,3.49,0,0,0,1.21,2.31,3.85,3.85,0,0,0,2.58.86,3.48,3.48,0,0,0,1.82-.43,8.84,8.84,0,0,0,1.16-.81ZM184,20.75a3.87,3.87,0,0,0-2.11.56,2.87,2.87,0,0,0-1.2,1.94h6v-.14a2.36,2.36,0,0,0-.46-1.23,2.8,2.8,0,0,0-1-.84A2.93,2.93,0,0,0,184,20.75Z"/><path class="cls-2" d="M31,15.63a3.61,3.61,0,0,1-3.61,3.61,3.57,3.57,0,0,1-2.58-1.11,4.18,4.18,0,0,0-6.63-.05,3.54,3.54,0,0,1-2.62,1.16,3.61,3.61,0,1,1,0-7.21,3.58,3.58,0,0,1,2.73,1.28h0a4.2,4.2,0,0,0,6.31,0h0A3.6,3.6,0,0,1,31,15.63Z"/><path class="cls-2" d="M43.24,32.79a3.59,3.59,0,0,1-6.18,2.5,4.18,4.18,0,0,0-6.64-.06,3.49,3.49,0,0,1-2.61,1.17,3.61,3.61,0,1,1,2.73-5.93h0a4.18,4.18,0,0,0,6.3,0h0a3.59,3.59,0,0,1,6.35,2.32Z"/><path class="cls-2" d="M37.38,24.21a3.61,3.61,0,0,1-3.61,3.61,3.57,3.57,0,0,1-2.58-1.11,4.19,4.19,0,0,0-6.63-.06,3.51,3.51,0,0,1-2.62,1.17,3.61,3.61,0,0,1,0-7.22,3.55,3.55,0,0,1,2.73,1.29h0a4.18,4.18,0,0,0,6.3,0h0a3.6,3.6,0,0,1,6.36,2.32Z"/><circle class="cls-2" cx="38.14" cy="15.59" r="3.56"/><circle class="cls-2" cx="15.9" cy="32.75" r="3.56"/><rect class="cls-3" x="0.21" y="0.02" width="200.36" height="47.95"/></g></svg>